<?xml version="1.0" standalone="no"?>
<!DOCTYPE svg PUBLIC "-//W3C//DTD SVG 20010904//EN"
 "http://www.w3.org/TR/2001/REC-SVG-20010904/DTD/svg10.dtd">
<svg version="1.0" xmlns="http://www.w3.org/2000/svg"
 width="490.000000pt" height="490.000000pt" viewBox="0 0 490.000000 490.000000"
 preserveAspectRatio="xMidYMid meet">
<metadata>
Created by potrace 1.14, written by Peter Selinger 2001-2017
</metadata>
<g transform="translate(0.000000,490.000000) scale(0.100000,-0.100000)"
fill="#000000" stroke="none">
<path d="M1984 4602 c-60 -21 -132 -66 -194 -122 -25 -22 -50 -40 -55 -40 -56
0 -341 -124 -471 -205 -132 -83 -273 -254 -332 -405 -66 -171 -59 -281 29
-451 61 -116 113 -171 185 -193 20 -6 23 -1 34 46 40 170 117 323 226 447 59
67 126 131 157 149 15 9 27 20 27 24 0 4 5 8 11 8 10 0 8 -207 -6 -560 -2 -41
-6 -158 -9 -260 -4 -102 -8 -228 -11 -280 -3 -52 -7 -160 -11 -240 -3 -80 -7
-165 -9 -190 -1 -25 -3 -78 -4 -119 l-1 -74 -112 6 c-62 3 -120 8 -129 12 -12
5 -18 -1 -22 -22 -18 -91 26 -332 62 -334 9 0 25 -2 36 -4 11 -2 47 -6 79 -9
33 -3 62 -8 64 -11 5 -5 3 -76 -5 -190 -2 -33 -6 -249 -8 -480 -4 -449 2 -536
45 -690 29 -106 39 -121 81 -119 147 7 358 80 469 162 19 14 36 26 38 27 1 1
-2 14 -7 28 -14 36 -39 162 -47 232 -10 98 -12 127 -29 450 -3 50 -8 201 -11
337 -5 206 -4 248 7 249 20 1 47 5 100 13 90 14 106 17 227 47 68 17 124 30
126 28 1 -2 19 -49 40 -104 21 -55 50 -131 66 -170 35 -90 76 -210 140 -410
49 -153 92 -277 110 -320 121 -275 158 -343 249 -458 126 -158 254 -226 436
-230 60 -2 177 18 239 40 98 35 144 69 201 145 l27 38 -23 0 c-68 1 -207 83
-313 185 -138 132 -295 370 -399 605 -9 19 -28 62 -42 95 -32 71 -93 229 -128
336 -15 42 -61 163 -103 268 -42 106 -75 193 -73 195 277 203 406 344 521 571
113 223 159 431 151 695 -7 256 -58 428 -187 627 -150 231 -431 421 -726 490
-146 34 -227 42 -397 40 -171 -3 -173 -3 -173 19 0 33 -42 87 -70 90 -14 2
-48 -5 -76 -14z m462 -586 c118 -32 146 -43 229 -92 143 -85 224 -175 299
-329 62 -128 80 -211 80 -380 1 -286 -45 -438 -191 -632 -102 -135 -246 -241
-415 -302 -46 -17 -73 -25 -158 -47 -64 -17 -199 -44 -218 -44 l-23 0 6 393
c3 215 8 471 11 567 2 96 7 288 9 425 5 288 13 457 23 467 23 23 222 8 348
-26z"/>
</g>
</svg>
